# xmcd CD Database Entry
#
# Track frame offsets:
# 150
# 6236
# 10546
# 12802
# 15553
# 20533
# 24546
# 27984
# 30261
# 32343
# 35198
# 38209
# 43000
# 45098
# 47607
# 51779
# 56535
# 62118
# 64266
# 66316
# 68908
# 72511
# 78012
# 80315
# 83353
# 84289
# 90423
# 92761
# 95423
# 98714
# 101953
# 106595
# 108899
# 110930
# 115291
# 119634
# 124670
# 126944
# 129161
# 132255
# 135676
# 141599
# 143981
# 146546
# 150319
# 152738
# 159209
# 161639
# 164467
# 165410
# 171097
# 173616
# 176163
# 182915
# 189467
# 195464
# 197905
# 199987
# 205612
# 211120
# 215392
# 217887
# 219959
# 224207
# 227959
# 233548
# 236158
# 238133
# 241593
# 245040
# 250732
# 253095
# 255907
# 256793
# 263039
# 265520
# 268075
# 272035
# 275944
# 281924
# 284276
# 286734
# 290064
# 293578
# 299607
# 301865
# 303992
# 308122
# 312079
# 316597
# 319013
# 321451
# 324417
# 327310
# 335196
# 337525
# 340743
#
# Disc length: 4553 seconds
#
# Revision: 4
# Processed by: cddbd v1.5.2PL0 Copyright (c) Steve Scherf et al.
# Submitted via: tcd 2.0b
#
DISCID=7411c761
DTITLE=未知 - 未知
DYEAR=1900
DGENRE=
TTITLE0=トラック 1
TTITLE1=トラック 2
TTITLE2=トラック 3
TTITLE3=トラック 4
TTITLE4=トラック 5
TTITLE5=トラック 6
TTITLE6=トラック 7
TTITLE7=トラック 8
TTITLE8=トラック 9
TTITLE9=トラック 10
TTITLE10=トラック 11
TTITLE11=トラック 12
TTITLE12=トラック 13
TTITLE13=トラック 14
TTITLE14=トラック 15
TTITLE15=トラック 16
TTITLE16=トラック 17
TTITLE17=トラック 18
TTITLE18=トラック 19
TTITLE19=トラック 20
TTITLE20=トラック 21
TTITLE21=トラック 22
TTITLE22=トラック 23
TTITLE23=トラック 24
TTITLE24=トラック 25
TTITLE25=トラック 26
TTITLE26=トラック 27
TTITLE27=トラック 28
TTITLE28=トラック 29
TTITLE29=トラック 30
TTITLE30=トラック 31
TTITLE31=トラック 32
TTITLE32=トラック 33
TTITLE33=トラック 34
TTITLE34=トラック 35
TTITLE35=トラック 36
TTITLE36=トラック 37
TTITLE37=トラック 38
TTITLE38=トラック 39
TTITLE39=トラック 40
TTITLE40=トラック 41
TTITLE41=トラック 42
TTITLE42=トラック 43
TTITLE43=トラック 44
TTITLE44=トラック 45
TTITLE45=トラック 46
TTITLE46=トラック 47
TTITLE47=トラック 48
TTITLE48=トラック 49
TTITLE49=トラック 50
TTITLE50=トラック 51
TTITLE51=トラック 52
TTITLE52=トラック 53
TTITLE53=トラック 54
TTITLE54=トラック 55
TTITLE55=トラック 56
TTITLE56=トラック 57
TTITLE57=トラック 58
TTITLE58=トラック 59
TTITLE59=トラック 60
TTITLE60=トラック 61
TTITLE61=トラック 62
TTITLE62=トラック 63
TTITLE63=トラック 64
TTITLE64=トラック 65
TTITLE65=トラック 66
TTITLE66=トラック 67
TTITLE67=トラック 68
TTITLE68=トラック 69
TTITLE69=トラック 70
TTITLE70=トラック 71
TTITLE71=トラック 72
TTITLE72=トラック 73
TTITLE73=トラック 74
TTITLE74=トラック 75
TTITLE75=トラック 76
TTITLE76=トラック 77
TTITLE77=トラック 78
TTITLE78=トラック 79
TTITLE79=トラック 80
TTITLE80=トラック 81
TTITLE81=トラック 82
TTITLE82=トラック 83
TTITLE83=トラック 84
TTITLE84=トラック 85
TTITLE85=トラック 86
TTITLE86=トラック 87
TTITLE87=トラック 88
TTITLE88=トラック 89
TTITLE89=トラック 90
TTITLE90=トラック 91
TTITLE91=トラック 92
TTITLE92=トラック 93
TTITLE93=トラック 94
TTITLE94=トラック 95
TTITLE95=トラック 96
TTITLE96=トラック 97
EXTD=
EXTT0=
EXTT1=
EXTT2=
EXTT3=
EXTT4=
EXTT5=
EXTT6=
EXTT7=
EXTT8=
EXTT9=
EXTT10=
EXTT11=
EXTT12=
EXTT13=
EXTT14=
EXTT15=
EXTT16=
EXTT17=
EXTT18=
EXTT19=
EXTT20=
EXTT21=
EXTT22=
EXTT23=
EXTT24=
EXTT25=
EXTT26=
EXTT27=
EXTT28=
EXTT29=
EXTT30=
EXTT31=
EXTT32=
EXTT33=
EXTT34=
EXTT35=
EXTT36=
EXTT37=
EXTT38=
EXTT39=
EXTT40=
EXTT41=
EXTT42=
EXTT43=
EXTT44=
EXTT45=
EXTT46=
EXTT47=
EXTT48=
EXTT49=
EXTT50=
EXTT51=
EXTT52=
EXTT53=
EXTT54=
EXTT55=
EXTT56=
EXTT57=
EXTT58=
EXTT59=
EXTT60=
EXTT61=
EXTT62=
EXTT63=
EXTT64=
EXTT65=
EXTT66=
EXTT67=
EXTT68=
EXTT69=
EXTT70=
EXTT71=
EXTT72=
EXTT73=
EXTT74=
EXTT75=
EXTT76=
EXTT77=
EXTT78=
EXTT79=
EXTT80=
EXTT81=
EXTT82=
EXTT83=
EXTT84=
EXTT85=
EXTT86=
EXTT87=
EXTT88=
EXTT89=
EXTT90=
EXTT91=
EXTT92=
EXTT93=
EXTT94=
EXTT95=
EXTT96=
PLAYORDER=
